<?xml version="1.0" encoding="UTF-8" standalone="no"?>
<svg
   xmlns:dc="http://purl.org/dc/elements/1.1/"
   xmlns:cc="http://creativecommons.org/ns#"
   xmlns:rdf="http://www.w3.org/1999/02/22-rdf-syntax-ns#"
   xmlns:svg="http://www.w3.org/2000/svg"
   xmlns="http://www.w3.org/2000/svg"
   xmlns:sodipodi="http://sodipodi.sourceforge.net/DTD/sodipodi-0.dtd"
   xmlns:inkscape="http://www.inkscape.org/namespaces/inkscape"
   id="MDN_Web_Docs"
   data-name="MDN Web Docs"
   viewBox="0 0 57.943825 47.942459"
   preserveAspectRatio="xMaxYMid"
   width="57.943825"
   height="47.942459"
   version="1.1"
   sodipodi:docname="mdn-mozilla-icon.svg"
   inkscape:version="0.92.3 (2405546, 2018-03-11)">
  <metadata
     id="metadata15">
    <rdf:RDF>
      <cc:Work
         rdf:about="">
        <dc:format>image/svg+xml</dc:format>
        <dc:type
           rdf:resource="http://purl.org/dc/dcmitype/StillImage" />
        <dc:title>MDN Web Docs</dc:title>
      </cc:Work>
    </rdf:RDF>
  </metadata>
  <sodipodi:namedview
     pagecolor="#ffffff"
     bordercolor="#666666"
     borderopacity="1"
     objecttolerance="10"
     gridtolerance="10"
     guidetolerance="10"
     inkscape:pageopacity="0"
     inkscape:pageshadow="2"
     inkscape:window-width="1394"
     inkscape:window-height="873"
     id="namedview13"
     showgrid="false"
     fit-margin-top="0"
     fit-margin-left="0"
     fit-margin-right="0"
     fit-margin-bottom="0"
     inkscape:zoom="10.04802"
     inkscape:cx="48.164666"
     inkscape:cy="20.426157"
     inkscape:window-x="46"
     inkscape:window-y="27"
     inkscape:window-maximized="1"
     inkscape:current-layer="MDN_Web_Docs" />
  <defs
     id="defs4">
    <style
       id="style2">.cls-1{fill:#fff;}</style>
  </defs>
  <title
     id="title6">MDN Web Docs</title>
  <path
     d="M 24.341169,0.03361048 C 23.623296,0.08354201 22.783966,0.19247325 21.75551,0.36826329 17.420247,1.351053 13.452161,3.5356328 10.295272,6.6666584 L 0,17.593349 h 9.243961 l -5.66382,5.998471 h 9.739624 l -5.6606622,5.995315 h 7.8295822 l -2.500414,6.563591 c 9.58543,9.811731 19.801271,11.791732 19.801271,11.791732 0,-2.704288 0.611365,-13.319133 1.332293,-15.097206 0.269943,-0.892269 0.689685,-1.731221 1.234422,-2.490943 1.336788,-1.639061 3.364726,-2.56669 5.483866,-2.500416 2.106209,0 4.196986,0.386529 6.165798,1.136553 1.196158,0.501093 2.549666,0.425045 3.681168,-0.198897 0.81953,-0.484929 1.627821,-0.99807 2.421488,-1.518561 0.25378,-0.202053 0.574868,-0.303384 0.899772,-0.290453 0.87287,0.09699 1.702959,-0.3837 2.052108,-1.187066 0.258629,-0.533422 0.564841,-1.035652 0.8461,-1.569074 0.762955,-1.428924 1.115034,-3.03712 1.022898,-4.653551 l 0.0063,0.0032 C 57.877567,18.407398 57.741913,17.23546 57.661092,16.074863 57.617448,15.492948 57.391982,14.942529 57.020203,14.493162 56.580534,13.956507 56.009302,13.543937 55.36273,13.296623 54.056654,12.789064 52.739996,12.223946 51.425838,11.721236 49.56371,11.082746 47.756869,10.288018 46.024056,9.3407902 44.860226,8.6699716 44.086082,7.4856826 43.930904,6.1521276 43.759563,4.6439997 42.872623,3.3063017 41.553615,2.5530452 40.08913,1.7658436 38.382129,1.5612633 36.773781,1.9847697 35.587321,2.2692614 34.348377,2.251151 33.168383,1.9311042 L 31.368842,1.3817716 30.88265,1.2365515 29.471431,0.81665783 C 27.568084,0.24929078 26.494774,-0.11609845 24.341159,0.03369938 Z"
     id="path8"
     inkscape:connector-curvature="0"
     inkscape:transform-center-x="-54.695984"
     inkscape:transform-center-y="-46.974198"
     sodipodi:nodetypes="cccccccccccccccccccccccccccccccccccc"
     style="stroke-width:1.6164304;fill:#f9f9f9" />
  <g
     id="g67"
     transform="matrix(0.03256905,0,0,0.03256905,38.400333,30.941023)">
    <circle
       id="circle9"
       r="256"
       cy="-266.01202"
       cx="258.50299"
       style="fill:#d80027"
       transform="scale(1,-1)" />
    <polygon
       id="polygon11"
       points="228.372,218.594 256,133.565 283.628,218.594 373.033,218.594 300.702,271.144 328.33,356.174 256,303.623 183.67,356.174 211.298,271.144 138.968,218.594 "
       style="fill:#ffda44"
       transform="matrix(1.4947335,0,0,1.4947335,-124.14902,-111.13313)" />
    <g
       id="g13">
</g>
    <g
       id="g15">
</g>
    <g
       id="g17">
</g>
    <g
       id="g19">
</g>
    <g
       id="g21">
</g>
    <g
       id="g23">
</g>
    <g
       id="g25">
</g>
    <g
       id="g27">
</g>
    <g
       id="g29">
</g>
    <g
       id="g31">
</g>
    <g
       id="g33">
</g>
    <g
       id="g35">
</g>
    <g
       id="g37">
</g>
    <g
       id="g39">
</g>
    <g
       id="g41">
</g>
  </g>
</svg>
